<?xml version="1.0" encoding="UTF-8"?>
<svg id="Layer_2" xmlns="http://www.w3.org/2000/svg" viewBox="0 0 319.48 172.77">
  <defs>
    <style>
      .cls-1 {
        fill: none;
        stroke: #d3f21d;
        stroke-linecap: round;
        stroke-linejoin: round;
        stroke-width: 7px;
      }

      .cls-2 {
        fill: #d3f21d;
      }
    </style>
  </defs>
  <g id="Layer_1-2" data-name="Layer_1">
    <g>
      <g>
        <path class="cls-2" d="M228.79,121.05h-75.26c-6.39,0-9.58-7.72-5.07-12.24l53.21-53.21c3.01-3.01,7.97-2.77,10.63.55,12.8,15.96,21.26,35.55,23.61,56.97.46,4.23-2.87,7.93-7.13,7.93Z"/>
        <path class="cls-2" d="M130.19,97.7V22.45c0-4.26,3.7-7.59,7.93-7.13,21.42,2.35,41.01,10.81,56.97,23.61,3.32,2.66,3.55,7.63.55,10.63l-53.21,53.21c-4.52,4.52-12.24,1.32-12.24-5.07Z"/>
        <path class="cls-2" d="M109.41,102.77l-53.21-53.21c-3.01-3.01-2.77-7.97.55-10.63,15.96-12.8,35.55-21.26,56.97-23.61,4.23-.46,7.93,2.87,7.93,7.13v75.26c0,6.39-7.72,9.58-12.24,5.07Z"/>
        <path class="cls-2" d="M98.3,121.05H23.05c-4.26,0-7.59-3.7-7.13-7.93,2.35-21.42,10.81-41.01,23.61-56.97,2.66-3.32,7.63-3.55,10.63-.55l53.21,53.21c4.52,4.52,1.32,12.24-5.07,12.24Z"/>
      </g>
      <path class="cls-1" d="M6.3,117.62C6.3,54.59,59.86,3.5,125.92,3.5s119.62,51.09,119.62,114.12"/>
      <g>
        <path d="M4.84,138.25H0v-2.78h4.84v-10.41h3.08v10.41h9.6v2.78H7.92v20.15c0,9.67,5.79,10.92,8.72,10.92,1.03,0,1.69-.15,1.69-.15v2.86s-.73.15-1.83.15c-3.81,0-11.65-1.39-11.65-13.56v-20.38Z"/>
        <path d="M41.92,134.37c9.97,0,14.95,7.84,14.95,16.71,0,.81-.15,1.98-.15,1.98h-29.39c0,10.63,7.18,16.71,15.68,16.71,7.04,0,11.36-4.62,11.36-4.62l1.69,2.56s-5.13,5.06-13.05,5.06c-10.33,0-18.91-7.48-18.91-19.13,0-12.39,8.43-19.27,17.81-19.27ZM53.65,150.2c-.37-8.94-5.72-12.97-11.8-12.97-6.74,0-12.97,4.4-14.29,12.97h26.09Z"/>
        <path d="M66.04,165.15s4.1,4.62,11.36,4.62c4.47,0,8.43-2.35,8.43-6.89,0-9.31-20.15-6.67-20.15-18.62,0-6.52,5.5-9.89,11.73-9.89,7.48,0,10.85,3.96,10.85,3.96l-1.83,2.49s-3-3.44-9.23-3.44c-4.18,0-8.28,1.91-8.28,6.67,0,9.53,20.15,6.67,20.15,18.83,0,5.86-4.98,9.89-11.73,9.89-8.87,0-13.27-5.28-13.27-5.28l1.98-2.34Z"/>
        <path d="M100.34,138.25h-4.84v-2.78h4.84v-10.41h3.08v10.41h9.6v2.78h-9.6v20.15c0,9.67,5.79,10.92,8.72,10.92,1.03,0,1.69-.15,1.69-.15v2.86s-.73.15-1.83.15c-3.81,0-11.65-1.39-11.65-13.56v-20.38Z"/>
        <path class="cls-2" d="M119.98,158.99v-38.11h12.61v38.55c0,2.49,1.17,3.22,2.05,3.22.44,0,.73,0,1.32-.15l1.47,9.23c-1.32.59-3.37,1.03-6.16,1.03-8.5,0-11.29-5.57-11.29-13.78Z"/>
        <path class="cls-2" d="M139.92,153.57c0-11.87,8.65-19.2,17.59-19.2,10.85,0,15.98,7.92,15.98,17.74,0,2.2-.29,4.4-.51,5.28h-20.89c1.17,4.4,4.4,5.86,8.5,5.86,2.49,0,4.84-.73,7.48-2.2l4.1,7.48c-3.96,2.79-9.23,4.25-13.34,4.25-10.7,0-18.91-7.04-18.91-19.2ZM162.78,149.17c0-2.78-1.17-5.28-4.98-5.28-2.79,0-5.13,1.61-5.86,5.28h10.85Z"/>
        <path class="cls-2" d="M180.37,135.25h10.26l.88,4.47h.29c2.93-2.86,6.01-5.35,10.99-5.35s8.14,2.05,10.11,5.86c3-3.08,6.3-5.86,11.29-5.86,8.06,0,11.58,5.86,11.58,14.95v22.57h-12.61v-20.96c0-4.69-1.17-5.86-3.66-5.86-1.47,0-3.23.88-5.13,2.79v24.04h-12.61v-20.96c0-4.69-1.17-5.86-3.66-5.86-1.47,0-3.22.88-5.13,2.79v24.04h-12.61v-36.64Z"/>
        <path class="cls-2" d="M242.09,153.57c0-12.17,8.79-19.2,18.18-19.2s18.18,7.04,18.18,19.2-8.79,19.2-18.18,19.2-18.18-7.04-18.18-19.2ZM265.54,153.57c0-5.57-1.47-9.09-5.28-9.09s-5.28,3.52-5.28,9.09,1.47,9.09,5.28,9.09,5.28-3.52,5.28-9.09Z"/>
        <path class="cls-2" d="M285.04,135.25h10.26l.88,4.4h.29c2.93-2.78,6.6-5.28,11.58-5.28,8.06,0,11.43,5.86,11.43,14.95v22.57h-12.61v-20.96c0-4.69-1.17-5.86-3.66-5.86-2.35,0-3.66,1.03-5.57,2.79v24.04h-12.61v-36.64Z"/>
      </g>
    </g>
  </g>
</svg>